<svg width="81" height="32" viewBox="0 0 81 32" fill="none" xmlns="http://www.w3.org/2000/svg">
<path d="M76 0H31V32H76C78.7614 32 81 29.7614 81 27V5C81 2.23858 78.7614 0 76 0Z" fill="#0F1418"/>
<path d="M5 0.5H30.5V31.5H5C2.51472 31.5 0.5 29.4853 0.5 27V5C0.5 2.51472 2.51472 0.5 5 0.5Z" fill="white" stroke="#1C2125"/>
<path d="M55.256 20.2969C54.2306 20.8877 52.9562 21.1831 51.4328 21.1831C49.7433 21.1831 48.4103 20.7168 47.4338 19.7842C46.4621 18.8467 45.9762 17.5576 45.9762 15.917C45.9762 14.2666 46.5085 12.9214 47.5729 11.8813C48.6374 10.8413 50.0534 10.3213 51.821 10.3213C52.9343 10.3213 53.9157 10.4751 54.7653 10.7827V13.002C53.9548 12.5332 52.9636 12.2988 51.7917 12.2988C50.8102 12.2988 50.0095 12.6187 49.3893 13.2583C48.7741 13.8931 48.4665 14.7427 48.4665 15.8071C48.4665 16.8862 48.7424 17.7212 49.2941 18.312C49.8508 18.9028 50.6003 19.1982 51.5427 19.1982C52.1091 19.1982 52.5583 19.1177 52.8903 18.9565V16.9058H50.7883V15.0161H55.256V20.2969ZM58.688 12.3135C58.2974 12.3135 57.9775 12.1987 57.7285 11.9692C57.4795 11.7349 57.355 11.4492 57.355 11.1123C57.355 10.7656 57.4795 10.4824 57.7285 10.2627C57.9775 10.043 58.2974 9.93311 58.688 9.93311C59.0835 9.93311 59.4033 10.043 59.6475 10.2627C59.8965 10.4824 60.021 10.7656 60.021 11.1123C60.021 11.4639 59.8965 11.752 59.6475 11.9766C59.4033 12.2012 59.0835 12.3135 58.688 12.3135ZM59.8306 21H57.5161V13.5H59.8306V21ZM66.4925 20.9121C66.1507 21.0928 65.6356 21.1831 64.9471 21.1831C63.3162 21.1831 62.5008 20.3359 62.5008 18.6416V15.2065H61.285V13.5H62.5008V11.8813L64.8079 11.2222V13.5H66.4925V15.2065H64.8079V18.2388C64.8079 19.02 65.118 19.4106 65.7381 19.4106C65.9822 19.4106 66.2337 19.3398 66.4925 19.1982V20.9121Z" fill="white"/>
<path d="M76 0H5C2.23858 0 0 2.23858 0 5V27C0 29.7614 2.23858 32 5 32H76C78.7614 32 81 29.7614 81 27V5C81 2.23858 78.7614 0 76 0Z" fill="url(#paint0_linear_27_15)"/>
<rect x="15.7193" y="2.26367" width="19.0614" height="19.0614" rx="2" transform="rotate(45 15.7193 2.26367)" fill="#F05033"/>
<rect x="11.9753" y="6.00757" width="5.29482" height="2.11793" transform="rotate(45 11.9753 6.00757)" fill="white"/>
<circle cx="15.7193" cy="11.2492" r="2.11793" transform="rotate(45 15.7193 11.2492)" fill="white"/>
<rect x="17.2169" y="11.2493" width="5.29482" height="2.11793" transform="rotate(45 17.2169 11.2493)" fill="white"/>
<circle cx="20.9609" cy="16.4908" r="2.11793" transform="rotate(45 20.9609 16.4908)" fill="white"/>
<circle cx="16.4681" cy="20.9836" r="2.11793" transform="rotate(45 16.4681 20.9836)" fill="white"/>
<rect x="17.372" y="9.90674" width="10.0977" height="1.80774" transform="rotate(90 17.372 9.90674)" fill="white"/>
<rect x="13.4729" y="27.5944" width="5.11318" height="1.33421" fill="white"/>
<rect x="12.414" y="2.57373" width="5.11318" height="1.33421" fill="white"/>
<defs>
<linearGradient id="paint0_linear_27_15" x1="0" y1="0" x2="0" y2="32" gradientUnits="userSpaceOnUse">
<stop stop-color="#BBBBBB" stop-opacity="0.1"/>
<stop offset="1" stop-opacity="0.1"/>
</linearGradient>
</defs>
</svg>
